<svg xmlns="http://www.w3.org/2000/svg" version="1.1" xmlns:xlink="http://www.w3.org/1999/xlink" width="1877.577px" height="1757.874px"><svg xmlns="http://www.w3.org/2000/svg" version="1.1" xmlns:xlink="http://www.w3.org/1999/xlink" width="1877.577px" height="1757.874px"><svg xmlns="http://www.w3.org/2000/svg" id="uuid-e9a0cfd2-b5cd-450c-848a-b88491dbff2a" width="1877.577px" height="1757.874px" data-name="Layer 1" viewBox="193.445 255.297 1877.577 1757.874"><defs><style>.uuid-682e418e-d10b-4744-8509-7bd0c1bb8126{fill:#e68c33;stroke-width:0;fill-rule:evenodd}.uuid-0195d6ef-908b-402b-9eb5-6d8fcb2783b1,.uuid-267150e1-2ace-4ee9-9ba6-3180512a0c7b,.uuid-2eb6605c-1864-4bbc-bfc6-a5be81a7a1ab,.uuid-4748f34c-0ff9-4f2e-8b08-18e459b0666a,.uuid-5f864a19-cd0b-46cc-87eb-eb0573ae502c,.uuid-7b30bca7-a2a0-4e3f-9e1e-33e8f0355b57,.uuid-c62d9a97-193b-4bcd-b2df-ed30c5bba349,.uuid-c6d753be-17ae-4d4a-90b7-85adfe0ffaeb,.uuid-cbbff083-1b5c-4a40-bfa8-eee8b9f3c924,.uuid-e5e40465-e05b-4e85-a7ed-ab94058f17d1{stroke-width:0;fill-rule:evenodd}.uuid-2eb6605c-1864-4bbc-bfc6-a5be81a7a1ab{fill:#80402d}.uuid-e5e40465-e05b-4e85-a7ed-ab94058f17d1{fill:#552c1f}.uuid-267150e1-2ace-4ee9-9ba6-3180512a0c7b{fill:#c26727}.uuid-c6d753be-17ae-4d4a-90b7-85adfe0ffaeb{fill:#ffd06b}.uuid-0195d6ef-908b-402b-9eb5-6d8fcb2783b1{fill:#3d1e14}.uuid-cbbff083-1b5c-4a40-bfa8-eee8b9f3c924{fill:#d7c0a1}.uuid-5f864a19-cd0b-46cc-87eb-eb0573ae502c{fill:#703928}.uuid-7b30bca7-a2a0-4e3f-9e1e-33e8f0355b57{fill:#8f4b36}.uuid-4748f34c-0ff9-4f2e-8b08-18e459b0666a{fill:#a98551}.uuid-c62d9a97-193b-4bcd-b2df-ed30c5bba349{fill:#faa63f}</style></defs><path d="M534.14 868.25c115.41-67.15 229.08-137.46 346.51-200.96 90.86-49.13 184.79-92.28 277.98-136.73 60.96-29.07 76.85-36.76 123.15 9.74 50.75 50.96 100.32 103.11 151.92 153.21 108.09 104.96 217.75 208.3 327.12 311.95 92.34 87.51 186.22 173.39 277.98 261.5 36.04 34.61 36.47 67.21-5.17 93.64-149.2 94.73-298.62 189.11-448.01 283.55-165.02 104.33-330.07 208.61-495.2 312.76-44.08 27.8-61.82 25.15-96.53-11.83-106.06-112.99-209.04-228.91-309.46-346.95-101.11-118.85-198.23-241.13-293.5-364.74-32.55-42.23-62.77-86.25-92.92-130.26-34.59-50.51-24.64-81.59 51.55-126.83 61.3-36.4 122.95-72.21 184.57-108.06Z" class="uuid-e5e40465-e05b-4e85-a7ed-ab94058f17d1"></path><path d="M2043.68 1294.94c9.88 22.8 1.56 44.02-27.15 62.25-146.35 92.92-292.92 185.49-439.44 278.13-161.86 102.33-323.76 204.62-485.73 306.78-28.98 18.28-46.35 23.13-64.91 13.43 11.79-1.31 25.02-7.52 42.3-18.42 165.13-104.15 330.18-208.43 495.2-312.76 149.38-94.44 298.8-188.82 448.01-283.55 21.74-13.8 32.01-29.29 31.73-45.86Z" class="uuid-5f864a19-cd0b-46cc-87eb-eb0573ae502c"></path><path d="M1901.05 1457.68c42.08-27.15 76.97-51.71 119.89-77.5 60.62-36.41 64.65-83.98 16.81-128.16-26.37-24.35-54.76-52.72-80.65-77.58-4.92-4.72-14.41-15.16-22.05-12.42-8.63 3.1-35.1 19.25-42.53 24.61-6.16 4.45-6.47 12.35-2.26 16.81 32.75 34.72 53.14 53.87 87.59 89.37 12.5 12.88 5.37 31.05-7.78 39.19-48.32 29.95-69.3 42.09-117.76 71.82-5.21 3.2-11.53 8.48-6.48 15.39 3.63 4.98 12.39 8.41 14.24 9.82 8.14 6.2 20.41 18.7 18.69 29.78l-4.72 2.95c12.23 7.93 14.38 3.26 27.02-4.1Z" class="uuid-267150e1-2ace-4ee9-9ba6-3180512a0c7b"></path><path d="M1991.62 1134.75c-6.97 56.82-5.12 126.62 25.21 177.78-328.01 227.71-671.23 434.62-1010.76 644.7l-26.84-172.77 342.63-227.56 426.67-274.11 243.07-148.04Z" style="stroke-width:0;fill-rule:evenodd;fill:#ebe2d3"></path><path d="M1991.62 1134.75c-3.21 26.19-4.55 55.13-2.09 83.74l-931.06 589.33-7.92 121.91c-14.83 9.16-29.66 18.32-44.48 27.49l-26.84-172.77 342.63-227.56 426.67-274.11 243.07-148.04Z" class="uuid-cbbff083-1b5c-4a40-bfa8-eee8b9f3c924"></path><path d="M1991.62 1134.75c-1.97 16.05-3.23 33.14-3.35 50.55-1.13.76-2.29 1.52-3.49 2.27-149.2 93.48-298.62 186.62-448.01 279.82-165.02 102.95-330.07 205.86-495.2 308.64-26.97 16.78-44.08 22.25-61.24 15.43l-1.09-7 342.63-227.56 426.67-274.11 243.07-148.04Z" class="uuid-4748f34c-0ff9-4f2e-8b08-18e459b0666a"></path><path d="M518.89 631.01C634.3 564.82 747.97 495.46 865.4 432.94c90.86-48.37 184.79-90.74 277.98-134.41 60.96-28.57 76.85-36.12 123.15 10.76 50.75 51.39 100.32 103.95 151.92 154.48 108.09 105.86 217.75 210.12 327.12 314.67 92.34 88.28 186.22 174.94 277.98 263.82 36.04 34.91 36.47 67.51-5.17 93.6-149.2 93.48-298.62 186.62-448.01 279.82-165.02 102.95-330.07 205.86-495.2 308.64-44.08 27.43-61.82 24.63-96.53-12.63-106.06-113.87-209.04-230.65-309.46-349.53-101.11-119.7-198.23-242.78-293.5-367.18-32.55-42.5-62.77-86.77-92.92-131.04-34.59-50.79-24.64-81.8 51.55-126.4 61.3-35.89 122.95-71.18 184.57-106.52Z" class="uuid-0195d6ef-908b-402b-9eb5-6d8fcb2783b1"></path><path d="M518.89 631.01C634.3 564.82 747.97 495.46 865.4 432.94c90.86-48.37 184.79-90.74 277.98-134.41 60.96-28.57 76.85-36.12 123.15 10.76 50.75 51.39 100.32 103.95 151.92 154.48 108.09 105.86 217.75 210.12 327.12 314.67 92.34 88.28 186.22 174.94 277.98 263.82 12.41 12.02 20.6 23.77 24.3 35.08-5 9.28-13.89 18.06-26.89 26.2-149.2 93.48-298.62 186.62-448.01 279.82-165.02 102.95-330.07 205.86-495.2 308.64-44.08 27.43-61.82 24.63-96.53-12.63-106.06-113.87-209.04-230.65-309.46-349.53-101.11-119.7-198.23-242.78-293.5-367.18-32.55-42.5-62.77-86.77-92.92-131.04-8.8-12.93-14.72-24.57-17.39-35.48 8.43-18.86 29.74-37.16 66.35-58.59 61.3-35.89 122.95-71.18 184.57-106.52Z" class="uuid-e5e40465-e05b-4e85-a7ed-ab94058f17d1"></path><path d="M968.84 380.61c57.85-28.04 116.34-54.81 174.55-82.08 60.96-28.57 76.85-36.12 123.15 10.76 43.62 44.17 86.37 89.2 130.29 133.07-18.59 7.18-43.39 17.99-49.81 19.17-9.5 1.76-24.1-2.02-38.63-16.65-35.4-35.65-60.88-64.92-96.94-99.9-4.45-4.32-11.27-6.93-17.45-6.47-9.18.68-17.55 5.73-25.86 9.7-48.48 23.18-99.09 46.53-148.48 67.71-5.55 2.38-13.66 2.11-17.98-2.1l-32.85-33.22Zm181.71 1305.9c-29.6 23.25-61.6 43.27-92.12 65.29-11.5 8.3-27.71 20.69-29.41 36.53-4.82 44.7-8.3 83.73-10.43 128.65-.97 20.39 28.65 14.79 47.54 3.14l55.38-34.16c7.85 5.82 16.57 10.61 23.54 17.45 24.02 23.57-6.21 40.8-24.89 53.01-49.41 32.3-119.13 84.66-175.37 30.54-17.15-16.5-25.96-31.14-40.55-49.94-230.46-296.76-459.38-583.38-691.41-877.59-15.28-19.38-16.3-39.75-15.19-62.71 2.6-53.79 2.14-107.89 9.05-161.3 10.21-78.92 116.96-117.34 178.75-145.13 19.73-8.88 39.63 16.15 26.83 27.15-35.96 30.92-124.65 56.79-74.34 120.89 198.32 252.68 397.75 504.51 599.93 754.11 31.33 38.68 67.34 96.7 123.8 73.38 22.51-9.3 46.99-29.43 69.5-36.53 23.58-7.43 38.54 21.23 32.04 40.21-2.29 6.68-7.09 12.64-12.64 17Z" class="uuid-0195d6ef-908b-402b-9eb5-6d8fcb2783b1"></path><path d="M219.01 799.55c29.98-52.08 105.01-82.26 156.77-104.97 19.2 7.03 16.38 17.63-.28 30.6-31.18 24.27-65.55 25.19-67.23 72.4-.47 13.06.94 27.9 9.05 38.14l302.55 382.07 254.06 325.82 75.64 89.86c45.38 44.57 41.11 46.55 104.08 50.42l-94.12 49.87-33.89-15.6-677.49-845.58z" class="uuid-2eb6605c-1864-4bbc-bfc6-a5be81a7a1ab"></path><path d="M1925.13 948.2c30.76 29.13 68 64.58 98.43 94.05 36.04 34.91 36.47 67.51-5.17 93.6-56.57 35.44-113.16 70.83-169.78 106.2l-11.95-23.25c-7.73-4.67-23.57-14.91-12.88-24.56 3.49-3.15 7.4-5.84 11.43-8.26 39.84-23.88 77.21-42.13 114.69-69.57 8.4-6.15 13.04-26.48 5.82-35.56-10.77-13.53-24.55-24.37-36.85-36.53-16.68-16.5-32.47-32.14-48.13-49.61-5.54-6.18-9.24-12.26-1.14-17.27l55.53-29.25Z" class="uuid-0195d6ef-908b-402b-9eb5-6d8fcb2783b1"></path><path d="M1884.79 1232.23c42.08-27.15 76.97-51.71 119.89-77.5 60.62-36.41 64.65-83.98 16.81-128.16-26.37-24.35-54.76-52.72-80.65-77.58-4.92-4.72-14.41-15.16-22.05-12.42-8.63 3.1-35.1 19.25-42.53 24.61-6.16 4.45-6.47 12.35-2.26 16.81 32.75 34.72 53.14 53.87 87.59 89.37 12.5 12.88 5.37 31.05-7.78 39.19-48.33 29.95-69.3 42.09-117.76 71.82-5.21 3.2-11.53 8.48-6.48 15.39 3.63 4.98 12.39 8.41 14.24 9.82 8.14 6.2 20.41 18.7 18.69 29.78l-4.72 2.95c12.23 7.93 14.38 3.26 27.01-4.1Zm-901.3-880.49c54.96-25.53 109.46-48.23 165.82-74.51 56.4-26.29 79.64-30.85 123.15 13.25 41.71 42.28 72.96 72.51 112.02 115.72 12.68 14.02 13.97 20.66 9.83 33.63l-8.23-8.25c-14 3.3-26.59 11.5-35.5 13.15-9.5 1.76-24.1-2.02-38.63-16.65-35.4-35.65-60.88-64.92-96.93-99.9-4.45-4.32-11.27-6.93-17.45-6.47-9.18.68-17.55 5.73-25.86 9.7-48.48 23.18-99.09 46.53-148.48 67.71-5.55 2.38-13.66 2.11-17.98-2.1L981.9 374.3l-13.57 6.55c.45-6.73-1.76-14.21 1.36-20.19 2.53-4.86 8.83-6.62 13.8-8.93Z" class="uuid-267150e1-2ace-4ee9-9ba6-3180512a0c7b"></path><path d="M955.6 1995.96c-3.65-2.6-7.25-5.59-10.8-9-17.15-16.5-25.96-31.14-40.55-49.94-230.46-296.76-459.38-583.38-691.41-877.59-15.28-19.38-16.3-39.75-15.19-62.71 2.6-53.79 2.14-107.89 9.05-161.3 3.47-26.83 18.11-48.97 38.33-67.62-38.33 67.62 88.79 183.32 146.61 259.01l440.9 553.38 142.22 171.96c-21.32 50.5-24.08 199.86-19.16 243.79Z" class="uuid-e5e40465-e05b-4e85-a7ed-ab94058f17d1"></path><path d="M1916.74 937.4c-10.17 4.47-33.56 18.79-40.47 23.78-1.09.79-1.99 1.68-2.72 2.65 31.69 30.27 62.38 58.41 93.47 89.94 13.01 13.19 17.13 33.88-2.76 46.23l-8.78 5.45c-.54.39-1.09.75-1.66 1.1-48.33 29.95-69.3 42.09-117.76 71.82-2.36 1.45-4.96 3.33-6.61 5.6 21.62 7.19 37.19 15.16 43.21 41.48 41.84-27.02 78.21-52.55 120.98-78.24 60.62-36.41 64.12-76.21 11.6-124.92-26.32-24.41-54.76-52.72-80.65-77.58-2-1.92-4.76-4.79-7.84-7.33Z" class="uuid-682e418e-d10b-4744-8509-7bd0c1bb8126"></path><path d="M1910.25 940.6c-7.47 3.95-17.23 9.75-24.69 14.45l83.06 75.78c29.79 27.18 36.76 50.69-4.33 78.7-42.1 28.7-80.15 51.9-122.4 79.1 8.73 3.78 16.03 8.49 21.57 15.82l137.49-90.22c52.92-34.73 16.55-67.58-17.8-102.93-25.39-26.13-47.37-46.07-72.89-70.7Z" class="uuid-c62d9a97-193b-4bcd-b2df-ed30c5bba349"></path><path d="m1985.78 1103.51-129.97 84.97 6.78 4.53 147.11-93.85z" class="uuid-c6d753be-17ae-4d4a-90b7-85adfe0ffaeb"></path><path d="M983.49 351.74c54.96-25.53 109.46-48.23 165.82-74.51 56.4-26.29 79.64-30.85 123.15 13.25 41.71 42.28 72.96 72.51 112.02 115.72 2.88 3.19 5.17 5.99 6.95 8.58-4.15-.81-7.84-.97-10.31-.03-8.7 3.32-35.74 19.23-49.42 6.83-40.42-36.67-65.1-73.19-105.74-109.61-12.02-10.77-27.34-10.4-39.13-4.58-51.93 25.64-94.69 48.68-148.35 71.81-7.69 3.31-23.72 9.12-31.03 2.91-7.37-6.27-12.55-14.88-20.04-21.01-5.12-4.19-12.5-2.91-17.74-.43 2.53-4.86 8.83-6.62 13.8-8.93Z" class="uuid-682e418e-d10b-4744-8509-7bd0c1bb8126"></path><path d="M983.49 351.74c54.96-25.53 109.46-48.23 165.82-74.51 56.4-26.29 79.64-30.85 123.15 13.25 41.71 42.28 72.96 72.51 112.02 115.72 2.88 3.19 5.17 5.99 6.95 8.58-4.15-.81-7.84-.97-10.31-.03-3.88 1.48-11.43 5.48-19.8 8.34-43.67-43.22-75.12-86.3-123.06-129.27-16.18-14.5-36.8-14-52.67-6.16-64.51 31.86-118.51 60.73-183.24 89.47-4.95-5.38-9.28-11.41-14.93-16.03-5.12-4.19-12.5-2.91-17.74-.43 2.53-4.86 8.83-6.62 13.8-8.93Z" class="uuid-c62d9a97-193b-4bcd-b2df-ed30c5bba349"></path><path d="m1897.66 957.55 92.28 84.05-4.69-16.49-75.79-73.86zm-906.2-603.31 12.07 9.73c46.82-22.06 93.33-44.77 140.21-66.71 31.78-14.87 70.19-42.07 100.82-9.77l114.75 121.05 13.25-3.56c-40.4-43.53-76.6-84.8-120.08-125.25-36.23-33.71-70.99-11.61-106.4 4.43l-154.61 70.07Z" class="uuid-c6d753be-17ae-4d4a-90b7-85adfe0ffaeb"></path><path d="M1872.93 1424.95c5.85 5.16 11.11 11.24 13.39 21.17 41.84-27.02 75.54-50.82 118.3-76.51 57.71-34.67 63.65-72.4 18.76-117.97 19.31 36.73 19.82 64.99-27.98 93.7-38.52 23.14-85.89 55.68-122.47 79.61" class="uuid-682e418e-d10b-4744-8509-7bd0c1bb8126"></path><path d="M1993.12 1245.75c1.35 7.44 3.01 14.78 5.01 21.98l-824.93 507.29zm10.3 38.38c1.53 4.14 3.2 8.21 5 12.2l-382.33 248.96-471.93 283.16 554.68-354.27z" class="uuid-cbbff083-1b5c-4a40-bfa8-eee8b9f3c924"></path><path d="M885.9 495.94c76.86-40.92 156.32-76.76 235.16-113.7 51.57-24.17 65.01-30.55 104.18 9.11 42.93 43.47 84.87 87.93 128.52 130.68 91.44 89.55 184.21 177.75 276.72 266.19 78.11 74.68 181.45 174.49 259.08 249.68 23.98 23.22 27.32 33.35-2.19 51.84-126.22 79.08-252.62 157.87-378.99 236.71-139.6 87.09-279.22 174.14-418.91 261.09-37.29 23.21-52.3 20.84-81.66-10.69-89.72-96.33-200.76-221.62-285.7-322.18-85.53-101.25-167.69-205.37-248.28-310.61-27.53-35.96-53.1-73.4-78.61-110.85-28.67-42.09 1.19-56.03 41.42-79.58 147.63-86.43 298.9-177.61 449.26-257.67Zm-688.17 523.4c-.59-7.28-.46-14.8-.09-22.61 2.44-50.5 2.18-101.29 7.86-151.51 28.78 61.37 101.64 132.62 141.52 184.84l440.9 553.38 142.22 171.96c-12.3 29.13-18.42 91.17-20.46 146.89L780.17 1745.7l-464.9-583.51c-31.12-40.74-81.28-92.48-117.55-142.85Z" class="uuid-5f864a19-cd0b-46cc-87eb-eb0573ae502c"></path><path d="M1062.83 1671.08c20.12-10.4 31.92-18.8 55.22-31.93 13.19-7.44 24.18 4.06 17.81 14.94-3.95 6.74-12.45 12.18-24.54 19.09-56.76 32.44-135.07 75.12-147.87 123.41l-49.48-117.93c37.92 45.85 102.42 16.42 148.87-7.58Z" class="uuid-e5e40465-e05b-4e85-a7ed-ab94058f17d1"></path><path d="M797.17 1799.69c2.42-46.94 3.91-93.94 7.27-140.83 3.35-46.8 6.78-59.27 46.09-81.19l121.26-67.64c18.28-10.2 9.65-36.87-.4-47.86-22.27-24.35-45.2-45.51-72.57-64.49-10.1-7-21.92-13.63-38.42-5.62l-136.7 66.33c-27.34 13.27-31.02 36.18-34.36 75.27-3.81 44.58-1.69 80.84-2.4 125.58-.17 10.73-1.51 32.73 5.02 41.63 29.02 39.61 58.63 78.93 91.15 115.72 9.53 10.78 18.88 6.82 30.73 4.39l-16.66-21.31Z" class="uuid-0195d6ef-908b-402b-9eb5-6d8fcb2783b1"></path><path d="M939.11 1429.8c-12.56-11.42-25.8-22.07-40.29-32.12-10.1-7-21.92-13.63-38.42-5.62l-136.7 66.33c-27.34 13.27-31.02 36.18-34.36 75.27-3.81 44.58-.36 59.81-1.08 104.55-.17 10.73-1.51 32.73 5.02 41.63 26.07 35.59 52.62 70.94 81.33 104.43 3.41-54.98 7.25-109.37 9.79-144.82 3.35-46.8 6.78-59.27 46.09-81.19l121.26-67.64c18.28-10.2 9.66-36.87-.4-47.86-4.05-4.43-8.12-8.75-12.24-12.97Z" class="uuid-e5e40465-e05b-4e85-a7ed-ab94058f17d1"></path><path d="m718.93 1467.17 82.97 92.8c39.22-21.55 71.66-38.82 110.65-60.8 26.6-14.99 52.55-29.72 25.86-59.48-16.09-17.94-36.55-32.83-58.83-42.02-8.97-3.7-19.74 1.8-28.49 6.01z" class="uuid-5f864a19-cd0b-46cc-87eb-eb0573ae502c"></path><path d="m921.12 1468.09-131.63 72.99c-26.58 14.74-34.47 38.66-37.81 77.75-3.81 44.58-.09 67.67-.81 112.42-.17 10.73-1.51 32.73 5.02 41.63 5.48 7.47 10.97 14.94 16.51 22.38l-1.06-22.62 5-123.03c7.43-75.08 14.68-78.39 78.91-112.91l89.9-48.32c20.61-9.54.39-33.82-24.02-20.29Z" class="uuid-0195d6ef-908b-402b-9eb5-6d8fcb2783b1"></path><path d="m857.81 1395.94-134.12 62.6c-27.54 12.85-31.02 36.18-34.36 75.27-3.81 44.58-.35 59.67-1.07 104.41-.17 10.73-1.51 32.73 5.02 41.63 5.48 7.48 10.98 14.94 16.51 22.38l-1.06-22.62 4.53-107.64c7.42-75.08 14.45-72.91 78.68-107.43l89.9-48.32c20.61-9.54 1.27-32.09-24.02-20.29Z" class="uuid-0195d6ef-908b-402b-9eb5-6d8fcb2783b1"></path><path d="M1882.08 1435.48c1.82 3.02 3.29 6.49 4.24 10.64 41.84-27.02 75.54-50.82 118.3-76.51 47.51-28.54 59.93-59.16 37.79-94.52l.68 21.84c1.04 33.09-38.27 58.02-61.52 72.94z" class="uuid-c62d9a97-193b-4bcd-b2df-ed30c5bba349"></path><path d="M940.53 1480.61c-41.34 25.05-81.74 46.48-123.39 71.01-43.26 25.48-42.72 45.67-46.67 94.86-3.62 45.14-4.59 91.49-3.72 136.81.2 10.51.29 12.63 4.97 20.21l6.18 7.17c-15.88 1.52-33.23-17.44-35.39-32.87-4.96-35.38.42-123.74 3.23-159.36 2.51-31.73 10.48-59.38 38.38-78.35 42.35-28.8 88.99-53.38 133.66-78.42 4.54-2.54 8.92-5.61 13.9-7.11 7.33-2.21 19.2 7.8 16.08 17.78-1.09 3.5-4.11 6.37-7.24 8.27Z" class="uuid-267150e1-2ace-4ee9-9ba6-3180512a0c7b"></path><path d="M756.67 1802.1c-7.4-6.61-12.99-15.96-14.16-24.3-4.96-35.38.42-123.74 3.23-159.36 2.51-31.73 10.48-59.38 38.38-78.35 42.35-28.8 88.99-53.38 133.66-78.42 4.54-2.54 8.92-5.61 13.9-7.11 5.51-1.66 13.6 3.59 15.94 10.54-1.55 2.24-3.78 4.12-6.07 5.51-44.07 26.7-87.14 49.54-131.54 75.7-46.12 27.17-45.55 48.68-49.75 101.12-3.86 48.12-4.9 97.53-3.96 145.84.07 3.76.13 6.51.37 8.81Z" class="uuid-682e418e-d10b-4744-8509-7bd0c1bb8126"></path><path d="M749.33 1793.81c-3.59-5.11-6.07-10.76-6.81-16.01-4.96-35.38.42-123.74 3.23-159.36 2.51-31.73 10.48-59.38 38.38-78.35 42.35-28.8 88.99-53.38 133.66-78.42 4.54-2.54 8.92-5.61 13.9-7.11 2.54-.76 5.62-.06 8.43 1.59-1.55 2.2-3.75 4.04-6 5.41-44.07 26.7-87.14 49.55-131.54 75.7-46.12 27.17-45.55 48.68-49.75 101.12-3.86 48.12-4.9 97.53-3.96 145.84.08 4.18.14 7.11.45 9.57Z" class="uuid-c62d9a97-193b-4bcd-b2df-ed30c5bba349"></path><path d="M869.33 1414.05c-47.16 22.94-68.48 34.76-110.14 56.47-44.52 23.2-51.3 32.69-55.24 81.88-3.62 45.14-7.83 96.58-6.96 141.9.2 10.5.29 12.63 4.97 20.21l5.84 7.89c-15.88 1.52-33.23-17.44-35.39-32.87-4.96-35.38 4.64-137.74 7.46-173.36 2.51-31.72 11.78-39.34 39.67-58.31 17.54-11.93 121.83-61.72 144.01-68.4 7.33-2.21 16.13 6.35 13.01 16.32-1.09 3.5-3.95 6.67-7.24 8.27Z" class="uuid-267150e1-2ace-4ee9-9ba6-3180512a0c7b"></path><path d="M693.53 1718.85c-10.66-6.03-19.6-18.54-21.11-29.33-4.96-35.38 4.64-137.74 7.46-173.36 2.51-31.72 11.78-39.34 39.67-58.31 17.54-11.93 121.83-61.72 144.01-68.4 5.32-1.6 11.42 2.47 13.17 8.65-1.5 2.34-3.69 4.32-6.11 5.49-49.68 24.17-78.64 35.91-121.55 60.56-39.47 22.67-48.72 26.19-52.87 78.02-3.81 47.56-8.05 108.92-7.13 156.67.2 10.45.29 13.03 4.46 20.01" class="uuid-682e418e-d10b-4744-8509-7bd0c1bb8126"></path><path d="M678.51 1704.47c-3.2-4.83-5.41-10.07-6.09-14.95-4.96-35.38 4.64-137.74 7.46-173.36 2.51-31.72 11.78-39.34 39.67-58.31 17.54-11.93 121.83-61.72 144.01-68.4 3.37-1.02 7.06.25 9.75 2.88a15.7 15.7 0 0 1-3.77 2.61c-52.27 25.43-81.78 39.07-127.96 63.11-46.92 24.42-50.84 34.03-55.2 88.55-3.98 49.67-8.73 107.77-7.86 157.87Z" class="uuid-c62d9a97-193b-4bcd-b2df-ed30c5bba349"></path><path d="M404.74 1301.92c2.42-46.94 3.91-93.94 7.27-140.83 3.35-46.8 6.78-59.27 46.09-81.19l121.26-67.64c18.28-10.2 9.65-36.87-.4-47.86-22.27-24.35-45.2-45.51-72.57-64.49-10.1-7-21.92-13.63-38.42-5.62l-136.7 66.33c-27.34 13.27-31.02 36.18-34.36 75.27-3.81 44.58-1.69 80.84-2.4 125.58-.17 10.73-1.51 32.73 5.02 41.63 29.02 39.61 58.63 78.93 91.15 115.72 9.53 10.78 18.88 6.82 30.73 4.39l-16.66-21.31Z" class="uuid-0195d6ef-908b-402b-9eb5-6d8fcb2783b1"></path><path d="M546.68 932.03c-12.56-11.42-25.8-22.07-40.29-32.12-10.1-7-21.92-13.63-38.42-5.62l-136.7 66.33c-27.34 13.27-31.02 36.18-34.36 75.27-3.81 44.58-.36 59.81-1.08 104.55-.17 10.73-1.5 32.73 5.02 41.63 26.07 35.59 52.62 70.94 81.33 104.43 3.41-54.98 7.25-109.37 9.79-144.82 3.35-46.8 6.78-59.27 46.09-81.19l121.26-67.64c18.28-10.2 9.65-36.87-.4-47.86-4.05-4.43-8.12-8.75-12.24-12.97Z" class="uuid-e5e40465-e05b-4e85-a7ed-ab94058f17d1"></path><path d="m326.5 969.4 82.97 92.8c39.22-21.55 71.66-38.82 110.65-60.8 26.6-14.99 52.55-29.72 25.86-59.48-16.09-17.94-36.55-32.83-58.83-42.02-8.97-3.7-19.74 1.8-28.49 6.01z" class="uuid-5f864a19-cd0b-46cc-87eb-eb0573ae502c"></path><path d="m527.46 969.45-131.63 72.99c-26.58 14.74-34.47 38.66-37.81 77.75-3.81 44.58-.09 67.67-.81 112.42-.17 10.73-1.5 32.73 5.02 41.63 5.48 7.47 10.97 14.94 16.51 22.38l-1.06-22.62 5-123.03c7.42-75.08 14.68-78.39 78.9-112.91l89.9-48.32c20.61-9.54.39-33.82-24.02-20.29" class="uuid-0195d6ef-908b-402b-9eb5-6d8fcb2783b1"></path><path d="M955.46 554.74c54.86-29.21 110.59-55.14 166.29-81.07 16.24-7.56 32.4-15.08 37-17.23l.21-.1c47.61-22.31 60.09-28.15 97.04 9.27 120.06 121.56 212.5 207.18 340.25 328.38 71.87 68.19 143.29 135.95 212.5 202.99 11.56 11.19 18.15 19.55 18.31 28.43.17 9.29-6.41 17.08-21.29 26.39-102.18 64.02-190.77 119.28-279.38 174.56l-47.76 29.79a419786 419786 0 0 1-361.6 225.37c-17.4 10.83-29.9 15.66-42.08 14.01-12.19-1.65-22.83-9.6-36.54-24.32-86.78-93.17-187.17-203.62-284.06-317.4-96.79-113.67-153.01-193.33-224.74-298.65-21.04-30.89-10.84-46.75 11.91-62.24 6.01-4.09 12.91-8.1 20.34-12.41l5.57-3.23c25.14-14.72 50.4-29.59 75.75-44.52 103.21-60.79 207.96-122.48 312.28-178.02m171.74-69.35c-55.93 26.03-111.88 52.07-165.68 80.71-104.06 55.4-208.7 117.03-311.82 177.76-25.35 14.93-50.61 29.81-75.75 44.52l-5.62 3.28c-7.21 4.18-13.89 8.07-19.53 11.91-16.21 11.04-23.49 22.33-8.52 44.31 71.6 105.13 127.49 184.39 223.88 297.59 96.3 113.09 196.71 223.54 283.71 316.94 11.63 12.49 20.15 19.16 28.82 20.33 8.68 1.17 18.76-3 33.54-12.2 60.29-37.52 120.56-75.07 180.83-112.64 60.26-37.56 120.52-75.14 180.77-112.73l47.76-29.79c97.72-60.96 195.46-121.93 279.38-174.51 10.59-6.64 15.3-11.2 15.22-15.28-.08-4.5-5.28-10.53-14.42-19.39-69.01-66.84-140.48-134.65-212.4-202.89-127.77-121.23-220.25-206.88-340.55-328.69-30.55-30.94-41.32-25.89-82.4-6.64l-.21.1c-20.04 9.39-28.56 13.36-37 17.28Z" style="stroke-width:0;fill:#80402d"></path><path d="m465.38 898.17-134.12 62.6c-27.54 12.85-31.02 36.18-34.36 75.27-3.81 44.58-.35 59.67-1.07 104.41-.17 10.73-1.5 32.73 5.02 41.63 5.48 7.47 10.97 14.94 16.51 22.38l-1.06-22.62 4.53-107.64c5.75-58.16-5.17-60.44 40-91.28l128.58-64.46c20.61-9.54 1.27-32.09-24.02-20.29Z" class="uuid-0195d6ef-908b-402b-9eb5-6d8fcb2783b1"></path><path d="M548.1 982.84c-41.34 25.05-81.74 46.48-123.39 71.01-43.26 25.48-42.72 45.67-46.67 94.86-3.62 45.14-4.59 91.49-3.72 136.81.2 10.51.29 12.63 4.97 20.21l6.18 7.17c-15.88 1.52-33.23-17.44-35.39-32.87-4.96-35.38.42-123.74 3.23-159.36 2.51-31.73 10.48-59.38 38.38-78.35 42.35-28.8 88.99-53.38 133.66-78.42 4.54-2.54 8.92-5.61 13.9-7.11 7.33-2.21 19.2 7.8 16.08 17.78-1.09 3.5-4.11 6.37-7.24 8.27Z" class="uuid-267150e1-2ace-4ee9-9ba6-3180512a0c7b"></path><path d="M364.24 1304.33c-7.4-6.61-12.99-15.96-14.16-24.3-4.96-35.38.42-123.74 3.23-159.36 2.51-31.73 10.48-59.38 38.38-78.35 42.35-28.8 88.99-53.38 133.66-78.42 4.54-2.54 8.92-5.61 13.9-7.11 5.51-1.66 13.6 3.59 15.94 10.54-1.55 2.24-3.78 4.12-6.07 5.51-44.07 26.7-87.14 49.54-131.54 75.7-46.12 27.17-45.55 48.68-49.75 101.12-3.86 48.12-4.9 97.53-3.96 145.84.07 3.76.13 6.51.37 8.81Z" class="uuid-682e418e-d10b-4744-8509-7bd0c1bb8126"></path><path d="M356.89 1296.04c-3.59-5.11-6.07-10.76-6.81-16.01-4.96-35.38.42-123.74 3.23-159.36 2.51-31.73 10.48-59.38 38.38-78.35 42.35-28.8 88.99-53.38 133.66-78.42 4.54-2.54 8.92-5.61 13.9-7.11 2.54-.76 5.62-.06 8.43 1.59-1.55 2.2-3.75 4.04-6 5.41-44.07 26.7-87.14 49.54-131.54 75.7-46.12 27.17-45.55 48.68-49.75 101.12-3.86 48.12-4.9 97.53-3.96 145.84.08 4.18.14 7.11.45 9.57Z" class="uuid-c62d9a97-193b-4bcd-b2df-ed30c5bba349"></path><path d="M476.9 916.28c-47.16 22.94-75.1 33.62-116.76 55.34-44.52 23.2-44.02 25.63-47.96 74.82-3.62 45.14-8.49 104.77-7.61 150.09.2 10.5.29 12.63 4.97 20.21l5.84 7.89c-15.88 1.52-33.23-17.44-35.39-32.87-4.96-35.37 4.64-137.74 7.46-173.36 2.51-31.72 11.78-39.34 39.67-58.31 17.54-11.93 121.83-61.72 144.01-68.4 7.33-2.21 16.13 6.35 13.01 16.32-1.09 3.5-3.95 6.67-7.24 8.27" class="uuid-267150e1-2ace-4ee9-9ba6-3180512a0c7b"></path><path d="M301.1 1221.08c-10.66-6.03-19.6-18.54-21.11-29.33-4.96-35.37 4.64-137.74 7.46-173.36 2.51-31.72 11.78-39.34 39.67-58.31 17.54-11.93 121.83-61.72 144.01-68.4 5.32-1.6 11.42 2.47 13.17 8.65-1.5 2.34-3.69 4.32-6.11 5.49-49.68 24.17-79.12 35.42-123.01 58.3-46.91 24.44-46.37 27-50.53 78.82-3.81 47.56-8.94 110.38-8.02 158.12.2 10.45.29 13.03 4.46 20.01Z" class="uuid-682e418e-d10b-4744-8509-7bd0c1bb8126"></path><path d="m884.93 1432.62-131.63 72.99c-26.58 14.74-34.47 38.66-37.81 77.75-3.81 44.58-.09 67.67-.81 112.42-.17 10.73-1.5 32.73 5.02 41.63 5.48 7.47 10.98 14.94 16.51 22.38l-1.06-22.62 5.22-128.52c7.42-75.08 14.45-72.91 78.68-107.43l89.9-48.32c20.61-9.54.39-33.82-24.02-20.29Z" class="uuid-0195d6ef-908b-402b-9eb5-6d8fcb2783b1"></path><path d="M286.08 1206.7c-3.2-4.83-5.41-10.07-6.09-14.95-4.96-35.37 4.64-137.74 7.46-173.36 2.51-31.72 11.78-39.34 39.67-58.31 17.54-11.93 121.83-61.72 144.01-68.4 3.37-1.02 7.06.25 9.75 2.88a15.7 15.7 0 0 1-3.77 2.61c-52.27 25.43-83.24 37.27-129.41 61.33-49.35 25.72-48.79 28.4-53.16 82.93-3.98 49.67-9.33 115.17-8.46 165.27" class="uuid-c62d9a97-193b-4bcd-b2df-ed30c5bba349"></path><path d="m454.23 1147.97-9.05 187.48 34.27 46.55 9.39-194.48zm47.2 58.83-9.05 187.48 34.26 46.54 9.39-194.47zm47.19 58.83-9.05 187.48 34.26 46.54 9.39-194.48z" class="uuid-e5e40465-e05b-4e85-a7ed-ab94058f17d1"></path><path d="M951.9 565.4c54.86-29.21 110.59-55.14 166.29-81.07 16.24-7.56 32.4-15.08 37-17.23l.21-.1c47.61-22.31 60.08-28.15 97.04 9.27 120.06 121.56 214.12 208.8 341.86 330 71.87 68.19 143.29 135.95 212.5 202.99 11.56 11.19 18.15 19.55 18.31 28.43.17 9.29-6.41 17.08-21.29 26.39-102.18 64.02-190.77 119.28-279.38 174.56l-47.76 29.79a419786 419786 0 0 1-361.6 225.37c-17.4 10.83-29.9 15.66-42.08 14.01-12.19-1.65-22.83-9.6-36.54-24.32-86.78-93.17-187.17-203.62-284.06-317.4-96.79-113.67-154.62-194.94-226.36-300.27-21.04-30.89-10.84-46.75 11.91-62.24 6.01-4.09 12.91-8.1 20.34-12.41l5.57-3.23c25.14-14.72 50.4-29.59 75.75-44.52 103.21-60.79 207.96-122.48 312.28-178.02Zm171.74-69.35c-55.93 26.03-111.88 52.07-165.68 80.71-104.06 55.4-208.7 117.03-311.82 177.76-25.35 14.93-50.61 29.81-75.75 44.52l-5.62 3.29c-7.21 4.18-13.89 8.06-19.53 11.91-16.21 11.04-23.49 22.33-8.52 44.31 71.6 105.13 129.11 186.01 225.5 299.21 96.3 113.09 196.71 223.54 283.71 316.94 11.63 12.49 20.15 19.16 28.81 20.33 8.68 1.17 18.76-3 33.54-12.2 60.29-37.52 120.56-75.07 180.83-112.64 60.26-37.56 120.52-75.14 180.77-112.73l47.76-29.79c97.72-60.96 195.46-121.93 279.38-174.51 10.59-6.64 15.3-11.2 15.22-15.28-.08-4.5-5.28-10.53-14.42-19.39-69.01-66.84-140.48-134.65-212.4-202.89-127.77-121.23-221.87-208.49-342.16-330.3-30.55-30.94-41.32-25.89-82.4-6.64l-.21.1c-20.04 9.39-28.56 13.36-37 17.28Z" style="stroke-width:0;fill:#552c1f"></path><path d="m218.11 918.78 56.88 75.99-5.85 82.4-56.21-74.02zm381.42 477.82 56.88 72.68-5.85 82.74-56.21-70.75zm222.39 273.79 72.23 93.85-5.85 82.56-71.56-91.9z" class="uuid-7b30bca7-a2a0-4e3f-9e1e-33e8f0355b57"></path><path d="M1389.18 465.78c165.51 157.15 328.58 316.67 494.55 473.22l-39.44 24.57c-163.95-158.21-334.42-311.03-500.61-473.13l45.49-24.66ZM445.32 697.22C617.7 593.79 790.98 494.92 967.03 397.9l20.04 18.1C806 514.53 622.41 609.12 447.26 717.9l-1.94-20.69Zm1359.54 510.39c-206.72 128.13-420.76 264.8-626.76 394.03l-26.83-21.66c206.1-132.89 413.9-263.78 621.88-393.34z" class="uuid-5f864a19-cd0b-46cc-87eb-eb0573ae502c"></path><path d="M1823.61 1071.31c18.98-17.39 62.81-32.08 86.8-.31 22.67 30.01-43.52 79.68-85.05 42.86-14.6-12.94-14.24-31.1-1.75-42.55" class="uuid-0195d6ef-908b-402b-9eb5-6d8fcb2783b1"></path><path d="M1825.49 1064.24c17.76-16.28 58.8-30.02 81.25-.29 21.22 28.09-40.74 74.58-79.61 40.12-13.66-12.11-13.33-29.12-1.64-39.83" class="uuid-267150e1-2ace-4ee9-9ba6-3180512a0c7b"></path><path d="M1826.63 1053.86c16.32-14.96 54.03-27.59 74.67-.27 19.5 25.81-37.44 68.54-73.16 36.87-12.56-11.13-12.25-26.76-1.51-36.6" class="uuid-682e418e-d10b-4744-8509-7bd0c1bb8126"></path><path d="M1846.1 1061.23c7.76-7.11 25.68-13.11 35.48-.13 9.26 12.27-17.79 32.57-34.77 17.52-5.97-5.29-5.82-12.71-.72-17.39Z" class="uuid-267150e1-2ace-4ee9-9ba6-3180512a0c7b"></path><path d="M1831 1055.8c14.3-13.11 47.34-24.18 65.43-.24 3.04 4.02 3.95 8.51 3.23 13.01-.48-2.36-1.5-4.66-3.13-6.82-18.08-23.94-51.12-12.87-65.43.24-3.82 3.5-6.13 7.83-6.8 12.39-1.2-6.73 1.18-13.53 6.69-18.59Z" class="uuid-c62d9a97-193b-4bcd-b2df-ed30c5bba349"></path><path d="M1883.23 1068.76c-2.4 11.11-22.69 22.03-36.41 9.87-1.01-.9-1.85-1.86-2.52-2.85.39-2.43 1.63-4.73 3.67-6.6 7.7-7.06 25.4-13.02 35.26-.42" class="uuid-0195d6ef-908b-402b-9eb5-6d8fcb2783b1"></path><path d="M1886.06 1077.72c-9.11 7.87-16.73 11.7-28.62 10.9-5.23-.35-9.54-1.78-14.63-3.8-3.67-1.46-7.64 5.62-2.38 8.12 17.01 8.09 37.95 1.22 49.13-8.24 5.97-5.05 2.21-11.91-3.5-6.98" class="uuid-c62d9a97-193b-4bcd-b2df-ed30c5bba349"></path><path d="M1140.6 389.26c18.98-17.39 62.81-32.08 86.8-.31 22.67 30.01-43.52 79.68-85.05 42.87-14.6-12.94-14.24-31.1-1.75-42.55Z" class="uuid-0195d6ef-908b-402b-9eb5-6d8fcb2783b1"></path><path d="M1142.48 382.19c17.76-16.28 58.8-30.02 81.25-.29 21.22 28.09-40.74 74.59-79.61 40.12-13.66-12.11-13.33-29.12-1.64-39.83" class="uuid-267150e1-2ace-4ee9-9ba6-3180512a0c7b"></path><path d="M1143.62 371.81c16.32-14.96 54.03-27.59 74.67-.27 19.5 25.81-37.44 68.54-73.16 36.87-12.56-11.13-12.25-26.76-1.51-36.6" class="uuid-682e418e-d10b-4744-8509-7bd0c1bb8126"></path><path d="M1163.09 379.18c7.76-7.11 25.67-13.11 35.48-.13 9.26 12.27-17.79 32.57-34.76 17.52-5.97-5.29-5.82-12.71-.72-17.39" class="uuid-267150e1-2ace-4ee9-9ba6-3180512a0c7b"></path><path d="M1147.99 373.75c14.3-13.11 47.34-24.18 65.43-.24 3.04 4.02 3.95 8.51 3.23 13.01-.48-2.36-1.5-4.66-3.13-6.82-18.08-23.94-51.12-12.87-65.43.24-3.82 3.5-6.13 7.83-6.8 12.39-1.2-6.73 1.17-13.53 6.69-18.59Z" class="uuid-c62d9a97-193b-4bcd-b2df-ed30c5bba349"></path><path d="M1200.22 386.71c-2.4 11.11-22.69 22.03-36.41 9.87-1.01-.9-1.85-1.86-2.52-2.85.38-2.43 1.63-4.73 3.67-6.6 7.7-7.06 25.4-13.02 35.26-.42" class="uuid-0195d6ef-908b-402b-9eb5-6d8fcb2783b1"></path><path d="M1203.05 395.67c-9.11 7.87-16.73 11.7-28.62 10.9-5.23-.35-9.54-1.78-14.63-3.8-3.67-1.46-7.64 5.62-2.38 8.12 17.01 8.1 37.95 1.22 49.13-8.24 5.97-5.05 2.21-11.91-3.5-6.98" class="uuid-c62d9a97-193b-4bcd-b2df-ed30c5bba349"></path><path d="m492.71 934.06-131.63 72.99c-26.58 14.74-34.47 38.66-37.81 77.75-3.81 44.58-.09 67.67-.81 112.42-.17 10.73-1.51 32.73 5.02 41.63 5.48 7.47 10.97 14.94 16.51 22.38l-1.06-22.62 5.22-128.52c7.42-75.08 14.45-72.91 78.68-107.43l89.9-48.32c20.61-9.54.39-33.82-24.02-20.29Z" class="uuid-0195d6ef-908b-402b-9eb5-6d8fcb2783b1"></path><path d="m1282.35 1666.11 47.53 91.27 28.52-17.67-27.05-69.33-43.71-10.96z" class="uuid-4748f34c-0ff9-4f2e-8b08-18e459b0666a"></path><path d="M374.29 794.72c18.98-17.39 62.81-32.08 86.8-.31 22.67 30.01-43.52 79.68-85.05 42.86-14.6-12.94-14.24-31.1-1.75-42.55" class="uuid-0195d6ef-908b-402b-9eb5-6d8fcb2783b1"></path><path d="M376.17 787.65c17.76-16.28 58.8-30.02 81.25-.29 21.22 28.09-40.74 74.58-79.61 40.12-13.66-12.11-13.33-29.12-1.64-39.83" class="uuid-267150e1-2ace-4ee9-9ba6-3180512a0c7b"></path><path d="M377.31 777.28c16.32-14.96 54.03-27.59 74.67-.27 19.5 25.81-37.44 68.54-73.16 36.87-12.56-11.13-12.25-26.76-1.51-36.6" class="uuid-682e418e-d10b-4744-8509-7bd0c1bb8126"></path><path d="M396.78 784.65c7.76-7.11 25.68-13.11 35.48-.13 9.27 12.27-17.79 32.57-34.76 17.52-5.97-5.29-5.82-12.71-.72-17.39" class="uuid-267150e1-2ace-4ee9-9ba6-3180512a0c7b"></path><path d="M381.69 779.21c14.3-13.11 47.34-24.18 65.43-.24 3.04 4.02 3.95 8.51 3.23 13.01-.48-2.36-1.5-4.66-3.13-6.82-18.08-23.94-51.12-12.87-65.43.24-3.82 3.5-6.13 7.83-6.8 12.39-1.2-6.73 1.17-13.53 6.69-18.59Z" class="uuid-c62d9a97-193b-4bcd-b2df-ed30c5bba349"></path><path d="M433.91 792.17c-2.4 11.11-22.69 22.03-36.41 9.87-1.01-.9-1.85-1.86-2.52-2.85.39-2.43 1.63-4.73 3.67-6.6 7.7-7.06 25.4-13.02 35.26-.42" class="uuid-0195d6ef-908b-402b-9eb5-6d8fcb2783b1"></path><path d="M436.74 801.14c-9.11 7.88-16.73 11.7-28.62 10.9-5.23-.35-9.54-1.78-14.63-3.8-3.67-1.46-7.64 5.62-2.38 8.12 17.01 8.09 37.95 1.22 49.13-8.24 5.97-5.05 2.21-11.91-3.5-6.98" class="uuid-c62d9a97-193b-4bcd-b2df-ed30c5bba349"></path><path d="M998.21 1587.66c18.98-17.39 62.81-32.08 86.8-.31 22.67 30.01-43.52 79.68-85.05 42.86-14.6-12.94-14.24-31.1-1.75-42.55" class="uuid-0195d6ef-908b-402b-9eb5-6d8fcb2783b1"></path><path d="M1000.08 1580.59c17.76-16.28 58.8-30.02 81.25-.29 21.22 28.09-40.74 74.58-79.61 40.12-13.66-12.11-13.33-29.12-1.64-39.83" class="uuid-267150e1-2ace-4ee9-9ba6-3180512a0c7b"></path><path d="M1001.23 1570.22c16.32-14.96 54.03-27.59 74.67-.27 19.5 25.81-37.44 68.54-73.16 36.87-12.56-11.13-12.25-26.76-1.51-36.6" class="uuid-682e418e-d10b-4744-8509-7bd0c1bb8126"></path><path d="M1020.7 1577.59c7.76-7.11 25.68-13.11 35.48-.13 9.26 12.27-17.79 32.57-34.76 17.52-5.97-5.29-5.82-12.71-.72-17.39" class="uuid-267150e1-2ace-4ee9-9ba6-3180512a0c7b"></path><path d="M1005.6 1572.15c14.3-13.11 47.34-24.18 65.43-.24 3.04 4.02 3.95 8.51 3.23 13.01-.48-2.36-1.5-4.66-3.13-6.82-18.08-23.94-51.12-12.87-65.43.24-3.82 3.5-6.13 7.83-6.8 12.39-1.2-6.73 1.17-13.53 6.69-18.59Z" class="uuid-c62d9a97-193b-4bcd-b2df-ed30c5bba349"></path><path d="M1057.82 1585.11c-2.4 11.11-22.69 22.03-36.41 9.87-1.01-.9-1.85-1.86-2.52-2.85.38-2.43 1.63-4.73 3.67-6.6 7.7-7.06 25.4-13.02 35.26-.42" class="uuid-0195d6ef-908b-402b-9eb5-6d8fcb2783b1"></path><path d="M1060.65 1594.08c-9.11 7.88-16.73 11.7-28.62 10.9-5.23-.35-9.54-1.78-14.63-3.8-3.67-1.46-7.64 5.62-2.38 8.12 17.01 8.09 37.95 1.22 49.13-8.24 5.97-5.05 2.21-11.92-3.5-6.98" class="uuid-c62d9a97-193b-4bcd-b2df-ed30c5bba349"></path><path d="M903.42 1445.63c-49.1 25.05-74.84 39.05-116.49 63.59-43.26 25.48-49.3 42.75-53.25 91.95-3.62 45.14-7.18 88.9-6.3 134.22.2 10.5.23 11.78 4.92 19.36l6.23 8.01c-15.88 1.52-31.29-18.41-33.45-33.84-4.96-35.37 3.65-120.67 6.47-156.28 2.51-31.72 17.33-58.19 45.22-77.16 23.87-16.24 113.61-65.4 138.78-72.98 7.33-2.21 18.23 4.89 15.11 14.87-1.09 3.5-3.98 6.61-7.24 8.27Z" class="uuid-267150e1-2ace-4ee9-9ba6-3180512a0c7b"></path><path d="M717.77 1753.38c-6.68-6.84-11.54-16.27-12.69-24.45-4.96-35.37 3.65-120.67 6.47-156.28 2.51-31.72 17.33-58.19 45.22-77.16 23.87-16.24 113.61-65.4 138.78-72.98 5.36-1.61 12.63 1.75 14.93 7.58-53.74 27.42-81.95 42.77-127.57 69.64-47.42 27.94-54.05 46.87-58.37 100.8-3.97 49.49-7.87 97.46-6.91 147.15.04 2.25.08 4.11.15 5.71Z" class="uuid-682e418e-d10b-4744-8509-7bd0c1bb8126"></path><path d="M711.76 1745.81c-3.5-5.43-5.92-11.43-6.68-16.88-4.96-35.37 3.65-120.67 6.47-156.28 2.51-31.72 17.33-58.19 45.22-77.16 23.87-16.24 113.61-65.4 138.78-72.98 3.02-.91 6.64-.24 9.64 1.56-.17.1-.35.19-.52.28-53.83 27.46-82.04 42.81-127.7 69.71-47.42 27.94-54.05 46.87-58.37 100.8-3.97 49.49-7.87 97.46-6.91 147.15.03 1.42.05 2.68.08 3.82Z" class="uuid-c62d9a97-193b-4bcd-b2df-ed30c5bba349"></path><path d="m1329.88 1757.38 17.49 37.35 27.11-17.13-16.08-37.89z" class="uuid-0195d6ef-908b-402b-9eb5-6d8fcb2783b1"></path><path d="M510.9 947.75c-49.1 25.05-74.84 39.05-116.49 63.59-43.26 25.48-49.3 42.75-53.25 91.95-3.62 45.14-7.18 88.9-6.3 134.22.2 10.5.23 11.78 4.92 19.36l6.23 8.01c-15.88 1.52-31.29-18.41-33.45-33.84-4.96-35.38 3.65-120.67 6.47-156.29 2.51-31.72 17.33-58.19 45.22-77.16 23.87-16.24 113.61-65.4 138.78-72.98 7.33-2.21 18.23 4.89 15.11 14.87-1.09 3.5-3.98 6.61-7.24 8.27" class="uuid-267150e1-2ace-4ee9-9ba6-3180512a0c7b"></path><path d="M325.25 1255.5c-6.68-6.84-11.54-16.28-12.69-24.45-4.96-35.38 3.65-120.67 6.47-156.29 2.51-31.72 17.33-58.19 45.22-77.16 23.87-16.24 113.61-65.4 138.78-72.98 5.36-1.61 12.63 1.75 14.93 7.58-53.74 27.42-81.95 42.77-127.57 69.64-47.42 27.94-54.05 46.87-58.37 100.8-3.97 49.49-7.87 97.46-6.91 147.15.04 2.25.08 4.11.15 5.71Z" class="uuid-682e418e-d10b-4744-8509-7bd0c1bb8126"></path><path d="M319.24 1247.93c-3.5-5.43-5.92-11.43-6.68-16.88-4.96-35.38 3.65-120.67 6.47-156.29 2.51-31.72 17.33-58.19 45.22-77.16 23.87-16.24 113.61-65.4 138.78-72.98 3.02-.91 6.64-.24 9.64 1.56-.17.1-.35.19-.52.28-53.83 27.46-82.04 42.81-127.7 69.71-47.42 27.94-54.05 46.87-58.37 100.8-3.97 49.49-7.87 97.46-6.91 147.15.03 1.42.05 2.68.08 3.82Z" class="uuid-c62d9a97-193b-4bcd-b2df-ed30c5bba349"></path><path d="m1571.73 1482.94-169.08 96.11-98.01 61.96-103.71 76.63zm417.1-274.36-195.96 134.39 196.66-124.48z" class="uuid-4748f34c-0ff9-4f2e-8b08-18e459b0666a"></path><path d="m480.98 1067.13 128.76 164.13-144.03-155.61zm-103.11-133.8-59.69-58.28 46.6 64.75zm493.07 632.95 62.68 86.16-76.36-78.53zM764.9 1433.81l-138.68-153.09 124.96 159.89z" class="uuid-e5e40465-e05b-4e85-a7ed-ab94058f17d1"></path><path d="m597.04 1048.15 126.31 129.17 156.12 189.54-139.2-144.16z" class="uuid-2eb6605c-1864-4bbc-bfc6-a5be81a7a1ab"></path><path d="M371.18 710.53c-43.46 22.68-109.24 59.18-90.02 110.39 11.47 30.57 22.95 56.08 43.8 88.73-21.77-21.23-43.23-47.35-57.65-74.73-12.99-24.67-15.36-58.46 6.25-74.93 33.88-25.83 56.21-36.93 97.62-49.46" class="uuid-7b30bca7-a2a0-4e3f-9e1e-33e8f0355b57"></path><path d="M1286.08 1663.75c32.39 21.94 51.28 33.55 69.8 111.37 21.09 88.61 52.35 125.33 112.04 184.08l12.61-63.35 67.23 6.79c-55.61-46.35-89.69-97.45-108.7-165.83-16.82-60.49-8.94-92.59-65.42-128.47-2.44-1.55-5.95-3.15-8.51-1.78-27.87 14.89-55.24 30.98-80.84 49.5-2.13 1.54-.39 6.22 1.79 7.7Z" style="stroke-width:0;fill-rule:evenodd;fill:#780000"></path><path d="m1470.26 1947.43 10.27-51.59 2.41-8.66 53.04 5.26c-48.69-43.69-79.29-92.23-96.92-155.64-16.39-58.94-9.34-90.93-61.24-125.74-25.39 13.8-50.26 28.7-73.66 45.63-2.13 1.54-.38 6.22 1.79 7.7 32.39 21.94 44.85 39.61 62.52 112.66 19.62 81.08 49.84 118.48 101.78 170.38Z" style="stroke-width:0;fill-rule:evenodd;fill:#a40000"></path><path d="M1433.84 1715.85c-7.16-31.94-9.5-55.33-25.4-76.82l-76.14 47.7c12.88 14.96 21.77 35.17 31.69 72.57l69.84-43.45Z" style="stroke-width:0;fill-rule:evenodd;fill:#b80000"></path></svg></svg><style>@media (prefers-color-scheme: light) { :root { filter: none; } }
@media (prefers-color-scheme: dark) { :root { filter: none; } }
</style></svg>